HIERARCHY
ROOT Hips
{
	OFFSET 0.000000 0.000000 0.000000
	CHANNELS 6 Xposition Yposition Zposition Zrotation Yrotation Xrotation 
	JOINT LHipJoint
	{
		OFFSET 0.000000 0.000000 0.000000
		CHANNELS 3 Zrotation Yrotation Xrotation
		JOINT LeftUpLeg
		{
			OFFSET 1.363060 -1.794630 0.839290
			CHANNELS 3 Zrotation Yrotation Xrotation
			JOINT LeftLeg
			{
				OFFSET 2.448110 -6.726130 0.000000
				CHANNELS 3 Zrotation Yrotation Xrotation
				JOINT LeftFoot
				{
					OFFSET 2.562200 -7.039590 0.000000
					CHANNELS 3 Zrotation Yrotation Xrotation
					JOINT LeftToeBase
					{
						OFFSET 0.157640 -0.433110 2.322550
						CHANNELS 3 Zrotation Yrotation Xrotation
						End Site
						{
							OFFSET 0.000000 0.000000 0.000000
						}
					}
				}
			}
		}
	}
	JOINT RHipJoint
	{
		OFFSET 0.000000 0.000000 0.000000
		CHANNELS 3 Zrotation Yrotation Xrotation
		JOINT RightUpLeg
		{
			OFFSET -1.305520 -1.794630 0.839290
			CHANNELS 3 Zrotation Yrotation Xrotation
			JOINT RightLeg
			{
				OFFSET -2.542530 -6.985550 0.000000
				CHANNELS 3 Zrotation Yrotation Xrotation
				JOINT RightFoot
				{
					OFFSET -2.568260 -7.056230 0.000000
					CHANNELS 3 Zrotation Yrotation Xrotation
					JOINT RightToeBase
					{
						OFFSET -0.164730 -0.452590 2.363150
						CHANNELS 3 Zrotation Yrotation Xrotation
						End Site
						{
							OFFSET 0.000000 0.000000 0.000000
						}
					}
				}
			}
		}
	}
	JOINT LowerBack
	{
		OFFSET 0.000000 0.000000 0.000000
		CHANNELS 3 Zrotation Yrotation Xrotation
		JOINT Spine
		{
			OFFSET 0.028270 2.035590 -0.193380
			CHANNELS 3 Zrotation Yrotation Xrotation
			JOINT Spine1
			{
				OFFSET 0.056720 2.048850 -0.042750
				CHANNELS 3 Zrotation Yrotation Xrotation
				JOINT Neck
				{
					OFFSET 0.000000 0.000000 0.000000
					CHANNELS 3 Zrotation Yrotation Xrotation
					JOINT Neck1
					{
						OFFSET -0.054170 1.746240 0.172020
						CHANNELS 3 Zrotation Yrotation Xrotation
						JOINT Head
						{
							OFFSET 0.104070 1.761360 -0.123970
							CHANNELS 3 Zrotation Yrotation Xrotation
							End Site
							{
								OFFSET 0.000000 0.000000 0.000000
							}
						}
					}
				}
				JOINT LeftShoulder
				{
					OFFSET 0.000000 0.000000 0.000000
					CHANNELS 3 Zrotation Yrotation Xrotation
					JOINT LeftArm
					{
						OFFSET 3.362410 1.200890 -0.311210
						CHANNELS 3 Zrotation Yrotation Xrotation
						JOINT LeftForeArm
						{
							OFFSET 4.983000 -0.000000 -0.000000
							CHANNELS 3 Zrotation Yrotation Xrotation
							JOINT LeftHand
							{
								OFFSET 3.483560 -0.000000 -0.000000
								CHANNELS 3 Zrotation Yrotation Xrotation
								JOINT LeftFingerBase
								{
									OFFSET 0.000000 0.000000 0.000000
									CHANNELS 3 Zrotation Yrotation Xrotation
									JOINT LeftHandIndex1
									{
										OFFSET 0.715260 -0.000000 -0.000000
										CHANNELS 3 Zrotation Yrotation Xrotation
										End Site
										{
											OFFSET 0.000000 0.000000 0.000000
										}
									}
								}
								JOINT LThumb
								{
									OFFSET 0.000000 0.000000 0.000000
									CHANNELS 3 Zrotation Yrotation Xrotation
									End Site
									{
										OFFSET 0.000000 0.000000 0.000000
									}
								}
							}
						}
					}
				}
				JOINT RightShoulder
				{
					OFFSET 0.000000 0.000000 0.000000
					CHANNELS 3 Zrotation Yrotation Xrotation
					JOINT RightArm
					{
						OFFSET -3.136600 1.374050 -0.404650
						CHANNELS 3 Zrotation Yrotation Xrotation
						JOINT RightForeArm
						{
							OFFSET -5.241900 -0.000000 -0.000000
							CHANNELS 3 Zrotation Yrotation Xrotation
							JOINT RightHand
							{
								OFFSET -3.444170 -0.000000 -0.000000
								CHANNELS 3 Zrotation Yrotation Xrotation
								JOINT RightFingerBase
								{
									OFFSET 0.000000 0.000000 0.000000
									CHANNELS 3 Zrotation Yrotation Xrotation
									JOINT RightHandIndex1
									{
										OFFSET -0.622530 -0.000000 -0.000000
										CHANNELS 3 Zrotation Yrotation Xrotation
										End Site
										{
											OFFSET 0.000000 0.000000 0.000000
										}
									}
								}
								JOINT RThumb
								{
									OFFSET 0.000000 0.000000 0.000000
									CHANNELS 3 Zrotation Yrotation Xrotation
									End Site
									{
										OFFSET 0.000000 0.000000 0.000000
									}
								}
							}
						}
					}
				}
			}
		}
	}
}
MOTION
Frames: 5
Frame Time: 0.008333
-1.099371 17.554618 16.090967 -1.362504 -2.783167 18.294990 16.699530 -0.735935 -5.061381 -26.282815 -17.333091 -23.632065 -6.176383 10.717895 17.264219 1.318831 2.921621 13.276785 0.745600 -5.515700 -15.385500 -16.965094 1.502252 -5.277629 27.220283 18.861055 -24.692918 -3.747725 -22.577167 52.050934 0.149310 -2.670085 3.478346 -0.560400 4.795000 -13.324800 -10.469152 -1.612412 -5.467153 0.110740 -0.312464 -5.277374 0.221466 0.147297 0.172420 0.356202 -0.995529 -15.151560 10.736644 -1.829033 7.007748 1.210600 0.165800 8.844000 -4.585036 -8.332070 -1.774276 -69.016726 -3.092020 33.010002 19.164542 -23.436853 -5.852270 -1.057757 -1.958949 -43.130173 21.589170 -3.332258 -1.114700 -7.125000 0.000000 0.000000 -2.212400 27.204800 0.956900 6.368240 10.306039 -1.342341 83.502189 -19.102768 24.386359 -18.575753 21.158871 -4.456037 0.794758 1.677900 -18.035710 -13.392621 -19.450437 5.291200 7.125000 0.000000 0.000000 13.931000 -50.817000 -2.030600 
-1.099593 17.546646 16.033281 -1.281249 -3.032087 18.238437 16.693953 -0.721017 -5.066606 -26.337175 -17.138910 -23.836974 -6.179570 10.749483 17.306746 1.350571 2.857128 13.417269 0.742000 -5.502500 -15.347700 -16.889235 1.457272 -5.267813 27.460030 18.720832 -23.744091 -3.603223 -22.284484 51.620321 0.074921 -2.424826 3.790322 -0.558600 4.787500 -13.303400 -10.322348 -1.400492 -5.674463 0.028180 -0.000127 -5.271630 -0.109872 0.282336 0.241306 0.359877 -1.136432 -15.245954 10.700784 -2.018842 7.074325 1.210400 0.082000 8.907000 -4.675333 -8.296564 -1.785134 -68.874990 -2.787135 32.708556 18.767490 -23.012953 -5.625342 -1.076299 -1.941165 -42.832466 21.411336 -3.265463 -1.083800 -7.125000 0.000000 0.000000 -2.351200 27.261900 1.013800 6.329151 10.268222 -1.355731 83.457276 -19.117896 24.399899 -18.555735 21.182979 -4.457223 0.796742 1.676274 -18.036864 -13.391222 -19.452820 5.291200 7.125000 0.000000 0.000000 13.931000 -50.817000 -2.030600 
-1.101918 17.539338 15.971829 -1.166908 -3.236340 18.189358 16.684711 -0.709794 -5.061149 -26.393893 -16.990936 -24.061266 -6.189097 10.777837 17.324676 1.388113 2.783370 13.573224 0.739100 -5.492100 -15.317700 -16.797551 1.407867 -5.262611 27.668286 18.515165 -22.765636 -3.392547 -21.929068 50.985427 0.025067 -2.282479 4.223245 -0.568000 4.826600 -13.414700 -10.220020 -1.211510 -5.819647 -0.043879 0.269574 -5.282611 -0.390184 0.407407 0.211946 0.319586 -1.254379 -15.279663 10.694799 -2.165252 7.143543 1.237900 0.018000 8.965900 -4.767031 -8.260737 -1.803599 -68.769697 -2.386334 32.386008 18.355650 -22.570374 -5.394989 -1.107699 -1.904461 -42.613696 21.275969 -3.424531 -1.163200 -7.125000 0.000000 0.000000 -2.456900 27.046500 1.071900 6.296378 10.245463 -1.369195 83.420538 -19.122832 24.407393 -18.543322 21.199553 -4.458933 0.799833 1.674433 -18.038543 -13.388839 -19.455859 5.291200 7.125000 0.000000 0.000000 13.931000 -50.817000 -2.030600 
-1.103468 17.532030 15.911042 -1.064197 -3.456266 18.131306 16.676545 -0.709373 -5.057614 -26.419655 -16.940216 -24.248494 -6.194407 10.813991 17.346409 1.382369 2.873950 13.720286 0.746000 -5.517200 -15.389700 -16.707681 1.351875 -5.258478 27.853406 18.330327 -21.780121 -3.154763 -21.551887 50.264361 -0.019373 -2.169557 4.592632 -0.569500 4.832900 -13.432600 -10.066587 -1.012969 -5.993157 -0.105572 0.539700 -5.284927 -0.630079 0.540769 0.237759 0.238585 -1.338466 -15.346720 10.632348 -2.256380 7.213992 1.252900 -0.028800 9.030500 -4.858652 -8.268987 -1.812677 -68.747948 -1.971048 32.028072 17.936558 -22.120945 -5.164044 -1.158296 -1.900940 -42.630992 21.414836 -3.434031 -1.193500 -7.125000 0.000000 0.000000 -2.323600 26.991100 1.016700 6.298046 10.278009 -1.381822 83.399437 -18.117968 25.421231 -18.575248 21.216616 -4.467757 0.852082 1.612885 -17.322596 -14.046941 -19.101708 5.438500 7.125000 0.000000 0.000000 13.121000 -50.513600 -1.809900 
-1.105461 17.523062 15.849591 -0.960600 -3.669639 18.071412 16.665271 -0.702546 -5.052618 -26.453339 -16.830637 -24.468920 -6.199127 10.856195 17.389309 1.402275 2.867737 13.875548 0.748900 -5.527600 -15.419700 -16.610148 1.294242 -5.255063 28.031721 18.121188 -20.773464 -2.897943 -21.147944 49.476622 -0.066928 -2.051876 4.930743 -0.608500 4.993000 -13.888600 -9.910789 -0.816869 -6.144905 -0.171308 0.808826 -5.290404 -0.906272 0.667356 0.245052 0.180520 -1.437153 -15.406307 10.587518 -2.373474 7.282991 1.268900 -0.084600 9.093400 -4.948967 -8.246540 -1.827523 -68.678884 -1.558888 31.651850 17.523323 -21.672184 -4.940318 -1.198072 -1.890358 -42.542542 21.434936 -3.428703 -1.207800 -7.125000 0.000000 0.000000 -2.292200 26.960200 1.004600 6.278011 10.269454 -1.391495 83.320462 -17.739805 25.727742 -18.604734 21.269859 -4.489451 0.857916 1.619449 -17.141994 -14.000513 -19.259405 5.464600 7.125000 0.000000 0.000000 13.226200 -50.671100 -1.876600 
